<svg width="55" height="55" viewBox="0 0 55 55" fill="none" xmlns="http://www.w3.org/2000/svg">
<path d="M27.5 0C12.375 0 0 12.375 0 27.5C0 42.625 12.375 55 27.5 55C42.625 55 55 42.625 55 27.5C55 12.375 42.625 0 27.5 0Z" fill="#1976D2"/>
<path d="M29.1501 40.1503C16.7751 40.1503 9.76255 31.7628 9.48755 17.6003H15.675C15.8125 27.9128 20.4875 32.3128 24.0625 33.1378V17.6003H29.8376V26.5378C33.4125 26.1253 37.125 22.1378 38.3625 17.6003H44.1375C43.175 23.1003 39.05 27.2253 36.1625 28.8753C39.05 30.2503 43.725 33.8253 45.375 40.1503H38.9125C37.5375 35.8878 34.1 32.5878 29.5625 32.0378V40.1503H29.1501Z" fill="white"/>
</svg>
